<svg width="16" height="16" viewBox="0 0 16 16" fill="none" xmlns="http://www.w3.org/2000/svg">
<rect width="16" height="16" rx="1" fill="white"/>
<path d="M13.0252 11.6518C12.8262 11.6518 12.6194 11.574 12.4097 11.4418C13.1245 10.4807 13.5473 9.28988 13.5473 8.00023C13.5473 4.81156 10.9623 2.22656 7.77367 2.22656C4.58499 2.22656 2 4.81156 2 8.00023C2 11.1889 4.58499 13.7739 7.77367 13.7739C8.95609 13.7739 10.0556 13.4183 10.9712 12.8083C11.6432 13.3415 12.3188 13.6017 13.0252 13.6017H14V11.6518H13.0252ZM7.77367 11.887C6.73539 11.887 5.75937 11.4827 5.02528 10.7486C4.5302 10.2535 4.18516 9.64848 4.01313 8.98863C4.39902 8.99295 6.18159 9.01023 7.57709 8.98784C7.60694 8.99727 7.75658 9.05756 8.06196 9.38356C8.35536 9.69679 8.67251 10.1247 9.00833 10.578C9.21414 10.8556 9.4227 11.1373 9.63951 11.412C9.07412 11.7223 8.43666 11.887 7.77367 11.887ZM10.5749 9.41714C10.1642 8.86294 9.77638 8.33939 9.36103 7.92187C8.75951 7.31741 8.17017 7.02813 7.55902 7.03815C6.14644 7.06093 4.31457 7.04208 4.00625 7.03815C4.17593 6.36789 4.52372 5.75321 5.02528 5.25165C5.75937 4.51757 6.73539 4.11322 7.77367 4.11322C8.81195 4.11322 9.78797 4.51757 10.5221 5.25165C11.2561 5.98573 11.6605 6.96176 11.6605 8.00003C11.6605 8.74354 11.4531 9.45524 11.0656 10.0689C10.8958 9.85016 10.7312 9.62805 10.5749 9.41694V9.41714Z" fill="black"/>
</svg>
