<?xml version="1.0" encoding="UTF-8"?><svg id="Layer_2" xmlns="http://www.w3.org/2000/svg" viewBox="0 0 611.05 588"><defs><style>.cls-1{stroke-width:0px;}</style></defs><g id="Layer_18"><path class="cls-1" d="M561.41,479.94c-10.13,0-20.66-3.96-31.34-10.69,36.4-48.94,57.93-109.58,57.93-175.25C588,131.63,456.37,0,294,0S0,131.63,0,294s131.63,294,294,294c60.21,0,116.2-18.11,162.82-49.17,34.22,27.15,68.62,40.4,104.59,40.4h49.64v-99.29h-49.64ZM294,491.92c-52.87,0-102.57-20.59-139.95-57.97-25.21-25.21-42.78-56.02-51.54-89.62,19.65.22,110.42,1.1,181.48-.04,1.52.48,9.14,3.55,24.69,20.15,14.94,15.95,31.09,37.74,48.19,60.82,10.48,14.14,21.1,28.48,32.14,42.47-28.79,15.8-61.25,24.19-95.01,24.19ZM436.64,366.15c-20.91-28.22-40.66-54.88-61.81-76.14-30.63-30.78-60.64-45.51-91.76-45-71.93,1.16-165.21.2-180.91,0,8.64-34.13,26.35-65.43,51.89-90.97,37.38-37.38,87.08-57.97,139.95-57.97s102.57,20.59,139.95,57.97,57.97,87.08,57.97,139.95c0,37.86-10.56,74.1-30.29,105.35-8.65-11.14-17.03-22.45-24.99-33.2Z"/></g></svg>